# Blender v2.77 (sub 0) OBJ File: ''
# www.blender.org
mtllib rock_crystal.mtl
o CrystalCrack.001
v 0.273455 -0.064989 -0.064979
v 0.269907 -0.064501 -0.071644
v 0.199615 0.088561 -0.018170
v 0.202909 0.088628 -0.011311
v -0.172388 -0.220163 0.100818
v -0.118937 -0.208917 0.107895
v -0.116429 -0.214530 0.106172
v -0.171949 -0.226213 0.098821
v 0.212346 -0.254628 -0.210314
v 0.209252 -0.256063 -0.215366
v 0.181863 -0.156261 -0.224166
v 0.184797 -0.154245 -0.219164
v -0.069185 -0.050770 -0.055902
v -0.127914 -0.053441 0.034937
v -0.066613 -0.505906 0.060915
v -0.008020 -0.505906 -0.028929
v -0.135374 -0.054368 0.036565
v 0.189280 -0.221548 -0.138981
v 0.194385 -0.223588 -0.141617
v 0.179750 -0.152607 -0.216081
v 0.212792 -0.261843 -0.208883
v 0.194031 -0.229420 -0.137128
v 0.140418 -0.504906 -0.028929
v 0.165808 -0.504906 -0.112913
v -0.054895 -0.504906 0.113649
v -0.117395 -0.504906 0.107790
v -0.111535 -0.504906 0.053102
v -0.049035 -0.504906 0.057008
v 0.085812 -0.037980 0.046169
v 0.223661 -0.057838 0.087148
v 0.196452 0.089017 -0.007307
v 0.062293 -0.504906 -0.044554
v 0.189201 -0.227481 -0.134676
v 0.116820 -0.221720 -0.156204
v 0.230219 -0.058759 0.083485
v -0.219488 -0.059006 -0.027178
v -0.220841 -0.069771 -0.025622
v -0.219285 -0.069114 -0.018118
v -0.217883 -0.058353 -0.019216
v 0.132058 -0.044643 -0.112625
v 0.125506 -0.043674 -0.108960
v 0.082270 -0.037444 0.039502
v 0.193310 0.090010 -0.014166
v 0.274700 -0.072139 -0.066548
v 0.230265 -0.065738 0.086022
v -0.137514 -0.044228 0.033159
v -0.167951 0.082724 -0.044125
v -0.129625 -0.043214 0.031385
v -0.073400 -0.040657 -0.055582
v -0.160240 0.084477 -0.046350
v -0.074994 -0.041385 -0.063540
v -0.155366 -0.055510 -0.115915
v -0.161332 0.083026 -0.054363
v 0.116869 -0.217419 -0.164670
v 0.119954 -0.216030 -0.159599
v 0.177013 -0.153626 -0.221480
v -0.163263 -0.056449 -0.114146
v -0.169265 0.082892 -0.052233
v 0.158722 -0.226211 0.155370
v 0.118933 -0.504906 0.039430
v 0.038855 -0.504906 0.053102
v 0.080743 -0.220189 0.167691
v 0.064246 -0.505906 -0.114867
v 0.013465 -0.505906 0.041383
v 0.079057 -0.043954 0.041073
v 0.123492 -0.050356 -0.111499
v 0.139926 -0.250544 -0.235986
v 0.134830 -0.248459 -0.233367
v 0.113875 -0.223040 -0.160967
v 0.132635 -0.255462 -0.232722
v 0.137466 -0.257402 -0.235174
v 0.079871 -0.504906 -0.122679
v 0.209846 -0.263163 -0.213646
v -0.162113 -0.067101 -0.116461
v 0.224059 -0.064844 0.089443
v 0.161902 -0.505906 0.088258
v 0.212683 -0.505906 -0.066038
v -0.162317 -0.505906 0.000368
v -0.095910 -0.505906 -0.091429
v 0.082442 -0.044442 0.047345
v 0.129698 -0.051249 -0.114920
v 0.271315 -0.071651 -0.072820
v -0.168535 -0.131282 0.144801
v 0.137520 -0.149291 0.237973
v 0.158441 -0.222789 0.157838
v 0.082276 -0.216906 0.169871
v 0.136512 -0.504906 0.133180
v 0.052527 -0.504906 0.142946
v -0.154651 -0.066175 -0.118089
v -0.070742 -0.051429 -0.063406
v 0.170449 -0.256971 0.234658
v 0.170813 -0.261134 0.233873
v 0.088209 -0.254753 0.246925
v -0.121205 -0.218607 0.161283
v -0.119027 -0.224580 0.161342
v -0.168989 -0.132229 0.149726
v -0.179858 -0.230947 0.153518
v -0.179428 -0.237290 0.153347
v 0.138112 -0.151400 0.242758
v 0.089416 -0.250712 0.247462
vt 0.981000 0.720900
vt 0.972200 0.753100
vt 0.516600 0.525100
vt 0.523400 0.492200
vt 0.043200 0.921100
vt 0.706500 0.921100
vt 0.719200 0.990000
vt 0.030300 0.990000
vt 0.971200 0.705300
vt 0.957500 0.754600
vt 0.525400 0.538600
vt 0.536100 0.488300
vt 0.715300 0.988700
vt 0.034300 0.988700
vt 0.045700 0.000000
vt 0.954100 0.000000
vt 0.019100 0.980500
vt 0.031600 -0.007800
vt 0.703100 0.029300
vt 0.753400 0.053200
vt 0.487100 0.461900
vt 0.715300 0.988700
vt 0.034300 0.988700
vt 0.045700 0.000000
vt 0.954100 0.000000
vt 0.042900 0.000000
vt 0.000000 0.959600
vt 0.957000 1.000000
vt 1.000000 0.040500
vt 0.035800 0.247100
vt 0.719200 0.019500
vt 0.491500 0.475100
vt 0.048500 0.000000
vt 0.951200 0.000000
vt 0.713400 0.988700
vt 0.036400 0.988700
vt 0.752400 0.034700
vt 0.040800 0.294900
vt -0.026900 0.272900
vt -0.013400 0.226600
vt 0.054800 0.245600
vt 0.516600 0.980900
vt 0.483900 0.965400
vt 0.026700 0.279300
vt 0.483900 0.508100
vt 0.727500 0.992600
vt 0.717800 0.941700
vt 0.031900 0.941700
vt 0.022400 0.992600
vt 0.703100 0.029300
vt 0.487100 0.461900
vt 0.753400 0.053200
vt 0.971200 0.705300
vt 0.536100 0.488300
vt 0.957500 0.754600
vt 0.525400 0.970800
vt 0.525400 0.538600
vt 0.040800 0.294900
vt 0.054800 0.245600
vt 0.475600 0.512200
vt 0.475600 0.947100
vt 0.475600 0.512200
vt 0.728500 0.993500
vt 0.971700 0.000000
vt 0.028000 0.000000
vt 0.021000 0.993500
vt 0.029900 0.000000
vt 0.969700 0.000000
vt 0.727500 0.992600
vt 0.022400 0.992600
vt 0.701200 0.910900
vt 0.048800 0.910900
vt 0.525400 0.970800
vt 0.475600 0.947100
vt -0.026900 0.272900
vt -0.013400 0.226600
vt 0.019100 0.980500
vt 0.031600 -0.007800
vt 0.034300 0.988700
vt 0.019100 0.980500
vt 0.031600 -0.007800
vt 0.713400 0.988700
vt 0.699200 0.907200
vt 0.050700 0.907200
vt 0.036400 0.988700
vt 1.036100 0.727500
vt 1.023400 0.773800
vt 0.715300 0.988700
vt 0.045700 0.000000
vt 0.954100 0.000000
vt 0.715300 0.988700
vt 0.701200 0.910900
vt 0.048800 0.910900
vt 0.034300 0.988700
vt 0.736300 -0.037100
vt 0.784200 -0.015600
vt 0.740700 -0.024400
vt 0.772000 -0.009800
vt 0.029900 0.000000
vt 0.969700 0.000000
vt 0.000000 0.954300
vt 0.048500 0.000000
vt 1.000000 0.045900
vt 0.951200 1.000000
vt 0.031700 0.000000
vt 0.968300 0.000000
vt 0.726100 0.992600
vt 0.023800 0.992600
vt 0.730000 0.985400
vt 0.699200 0.907200
vt 0.050700 0.907200
vt 0.000000 0.954300
vt 0.048500 0.000000
vt 1.000000 0.045900
vt 0.951200 1.000000
vt 0.483900 0.992600
vt 0.477800 0.956600
vt 0.022100 0.956600
vt 0.015900 0.992600
vt 0.031700 0.000000
vt 0.968300 0.000000
vt 0.048500 0.000000
vt 0.951200 0.000000
vt 0.478300 0.510700
vt 0.036100 0.289600
vt 0.478300 0.953200
vt 0.716800 0.939300
vt 0.033100 0.939300
vt 0.492400 0.478000
vt 0.722700 0.017100
vt 0.031600 0.247600
vt 0.717800 0.941700
vt 0.031900 0.941700
vt -0.017600 0.265100
vt -0.008700 0.234900
vt 0.045700 0.000000
vt 0.954100 0.000000
vt 0.959500 0.000000
vt 0.040400 0.000000
vt 0.496300 1.038500
vt 0.449200 1.016300
vt 0.000000 0.973600
vt 0.971700 1.000000
vt 1.000000 0.026900
vt 0.028000 0.000000
vt 0.475600 0.988700
vt 0.466100 0.933700
vt 0.033800 0.933700
vt 0.024300 0.988700
vt 0.048500 0.000000
vt 0.951200 0.000000
vt 0.475600 0.988700
vt 0.024300 0.988700
vt 0.497600 1.025100
vt 0.466800 1.010700
vt 0.701200 0.910900
vt 0.048800 0.910900
vt 1.023400 0.735400
vt 1.014600 0.765500
vt 0.736300 -0.037100
vt 0.784200 -0.015600
vt 0.007200 0.977600
vt 0.029600 -0.010700
vt 0.048500 0.000000
vt 0.951200 0.000000
vt 0.029200 0.946400
vt 0.720700 0.946400
vt 0.000000 0.970100
vt 0.031700 0.000000
vt 1.000000 0.030300
vt 0.968300 1.000000
vt 0.701200 0.910900
vt 0.048800 0.910900
vt 0.496300 1.038500
vt 0.449200 1.016300
vt 0.730000 0.985400
vt 0.007200 0.977600
vt 0.029600 -0.010700
vt 0.019100 0.980500
vt 0.031600 -0.007800
vt 1.036100 0.727500
vt 1.023400 0.773800
vt 0.012500 0.987200
vt 0.020600 -0.004900
vt 0.736800 0.990500
vt 0.004700 0.985400
vt 0.019300 -0.006800
vt 0.012500 0.987200
vt 0.020600 -0.004900
vt 0.466100 0.933700
vt 0.033800 0.933700
vt 0.028100 0.948600
vt 0.721700 0.948600
vt 0.730000 0.993500
vt 0.019800 0.993500
vt 0.026400 0.000000
vt 0.019800 0.993500
vt 0.730000 0.993500
vt 0.973100 0.000000
vt 0.044800 0.917900
vt 0.705100 0.917900
vt 0.717800 0.990000
vt 0.032200 0.990000
vt 0.531700 0.489700
vt 0.708500 0.025900
vt 0.488500 0.466300
vt 0.522500 0.534200
vt 0.974600 0.710700
vt 0.957000 0.000000
vt 0.042900 0.000000
vt 0.043200 0.921100
vt 0.706500 0.921100
vt 0.719200 0.990000
vt 0.030300 0.990000
vt 0.028000 0.000000
vt 0.014000 0.993500
vt 0.485800 0.993500
vt 0.971700 0.000000
vt 0.514600 0.522200
vt 0.983400 0.724400
vt 0.521000 0.493200
vt 0.029900 0.941200
vt 0.470000 0.941200
vt 0.478300 0.990000
vt 0.021500 0.990000
vt 0.019500 0.961700
vt 0.480500 0.961700
vt 0.752900 0.046900
vt 0.522500 0.974200
vt 0.962900 0.754200
vt 0.485800 0.507100
vt 0.514600 0.983200
vt 0.048400 0.246100
vt 0.959500 0.000000
vt 0.040400 0.000000
vt 0.752000 0.030800
vt 0.973100 0.000000
vt 0.026400 0.000000
vt 0.975600 0.752800
vt 0.023500 0.275900
vt 0.485800 0.969500
vt 0.028100 0.948600
vt 0.721700 0.948600
vt 0.042900 0.000000
vt 0.957000 0.000000
vn 0.948300 0.305200 -0.087000
vn 0.615800 0.360900 -0.700300
vn 0.275200 0.795200 -0.540300
vn 0.632800 0.759100 0.152400
vn -0.639800 0.265700 -0.721200
vn 0.639800 0.535000 -0.551700
vn 0.713500 0.366200 -0.597300
vn -0.635600 0.084300 -0.767400
vn 0.971700 0.125300 -0.200300
vn 0.604600 -0.032500 -0.795800
vn 0.285600 0.471900 -0.834100
vn 0.705600 0.696500 -0.130200
vn 0.953400 0.257800 0.156600
vn 0.527400 0.238600 0.815400
vn 0.220800 -0.547400 0.807200
vn 0.831300 -0.539300 -0.134000
vn -0.187100 0.149400 0.970900
vn 0.206600 0.655400 0.726500
vn 0.808300 0.407800 0.424700
vn -0.000200 0.965800 0.259000
vn 0.985000 -0.104100 -0.137200
vn 0.801700 0.208300 0.560100
vn 0.340500 -0.483800 0.806200
vn 0.665100 -0.687800 -0.290700
vn 0.603100 -0.558500 0.569400
vn -0.570900 -0.682000 0.457100
vn -0.439600 -0.566100 -0.697400
vn 0.680700 -0.467300 -0.564100
vn -0.488900 0.520000 0.700300
vn 0.152300 0.427600 0.891000
vn -0.039500 0.840500 0.540300
vn -0.725800 -0.444500 0.525000
vn 0.191700 0.451700 0.871300
vn -0.556900 0.512900 0.653200
vn 0.760400 0.332300 0.557900
vn -0.963100 0.190600 -0.189900
vn -0.983900 -0.026100 -0.176700
vn -0.834000 0.037200 0.550400
vn -0.816500 0.258900 0.516000
vn -0.025500 0.453300 -0.891000
vn -0.635700 0.533500 -0.557900
vn -0.823500 0.560500 0.087000
vn -0.392800 0.906900 -0.152400
vn 0.992700 0.020800 -0.118600
vn 0.770800 0.051900 0.634900
vn -0.219200 0.363800 0.905300
vn -0.451900 0.743400 0.493000
vn 0.484200 0.444800 0.753400
vn 0.873600 0.462500 0.151200
vn 0.392200 0.876400 0.279500
vn 0.725300 0.406800 -0.555400
vn 0.127900 0.301800 -0.944700
vn 0.243800 0.775100 -0.582900
vn -0.839800 0.538900 -0.065400
vn -0.470200 0.709300 0.525200
vn -0.411500 0.785400 -0.462400
vn -0.573700 0.208300 -0.792100
vn -0.608400 0.700600 -0.372800
vn 0.615400 0.352000 -0.705200
vn 0.420500 -0.466800 -0.777900
vn -0.671800 -0.444800 -0.592300
vn -0.749200 0.454100 -0.482000
vn -0.425700 -0.551800 -0.717100
vn -0.759700 -0.532400 0.373300
vn -0.946800 0.299000 0.118700
vn -0.725500 0.267000 -0.634300
vn -0.072300 0.021400 -0.997100
vn -0.676400 0.256500 -0.690300
vn -0.937200 0.345100 0.049700
vn -0.759900 0.025800 -0.649400
vn -0.155900 -0.224200 -0.962000
vn -0.529500 -0.648700 -0.546600
vn 0.593000 -0.279700 -0.755000
vn -0.555100 -0.007700 -0.831800
vn 0.139700 0.145000 0.979500
vn 0.328400 -0.603100 0.726900
vn 0.679900 -0.626400 -0.381200
vn -0.764000 -0.618100 0.184900
vn -0.098100 -0.609300 -0.786800
vn -0.603200 0.251600 0.756800
vn -0.091700 0.179000 -0.979600
vn 0.650700 0.071700 -0.755900
vn -0.165600 0.951300 -0.260100
vn 0.082300 0.996000 0.033900
vn 0.606200 0.564400 -0.560300
vn -0.656900 0.662000 -0.360700
vn 0.639300 -0.686400 0.346600
vn -0.566600 -0.640900 0.517900
vn 0.160800 0.082900 -0.983500
vn 0.806300 0.195600 -0.558200
vn 0.780000 0.056500 0.623200
vn 0.791400 -0.193500 0.579800
vn -0.594300 -0.086800 0.799600
vn 0.553600 0.300900 0.776500
vn 0.608500 0.118600 0.784600
vn -0.241000 0.790700 0.562700
vn -0.802100 0.015500 0.597000
vn -0.776400 -0.170700 0.606700
vn 0.163300 0.705500 0.689600
vn -0.533700 0.158000 0.830800
usemtl MEGAICEMAGIC.001
s 1
f 1/1/1 2/2/2 3/3/3 4/4/4
f 5/5/5 6/6/6 7/7/7 8/8/8
f 9/9/9 10/10/10 11/11/11 12/12/12
f 13/13/13 14/14/14 15/15/15 16/16/16
f 14/14/14 17/17/17 15/18/15
f 18/19/18 19/20/19 12/12/12 20/21/20
f 21/22/21 22/23/22 23/24/23 24/25/24
f 25/26/25 26/27/26 27/28/27 28/29/28
f 29/30/29 30/31/30 31/32/31
f 32/33/32 23/34/23 33/35/33 34/36/34
f 35/37/35 1/1/1 4/4/4
f 36/38/36 37/39/37 38/40/38 39/41/39
f 2/2/2 40/42/40 3/3/3
f 41/43/41 42/44/42 43/45/43
f 44/46/44 1/47/1 35/48/35 45/49/45
f 39/41/39 46/50/46 47/51/47
f 48/52/48 49/53/49 50/54/50
f 51/55/51 52/56/52 53/57/53
f 54/58/54 55/59/55 20/21/20 56/60/56
f 57/61/57 36/38/36 58/62/58
f 59/63/59 60/64/60 61/65/61 62/66/62
f 42/44/42 29/30/29 31/32/31 43/45/43
f 63/67/63 64/68/64 65/69/65 66/70/66
f 55/59/55 18/19/18 20/21/20
f 19/20/19 9/9/9 12/12/12
f 13/13/13 49/71/49 48/72/48 14/14/14
f 10/10/10 67/73/67 11/11/11
f 68/74/68 54/58/54 56/60/56
f 54/58/54 69/75/69 34/76/34 55/59/55
f 22/23/22 33/77/33 23/78/23
f 40/42/40 41/43/41 43/45/43 3/3/3
f 70/79/70 71/80/71 72/81/72
f 49/53/49 51/55/51 53/57/53 50/54/50
f 17/82/17 46/83/46 39/84/39 38/85/38
f 21/86/21 73/87/73 10/10/10 9/9/9
f 69/88/69 70/79/70 72/89/72 32/90/32
f 37/91/37 36/92/36 57/93/57 74/94/74
f 18/19/18 33/95/33 22/96/22 19/20/19
f 30/31/30 75/97/75 45/98/45 35/37/35
f 58/62/58 47/51/47 50/54/50 53/57/53
f 76/99/76 77/100/77 44/46/44 45/49/45
f 16/101/16 15/102/15 78/103/78 79/104/79
f 46/50/46 48/52/48 50/54/50 47/51/47
f 64/105/64 76/106/76 75/107/75 80/108/80
f 34/109/34 69/88/69 32/90/32
f 33/35/33 18/110/18 55/111/55 34/36/34
f 24/112/24 23/113/23 32/114/32 72/115/72
f 81/116/81 40/117/40 2/118/2 82/119/82
f 77/120/77 63/121/63 81/116/81 82/119/82
f 17/82/17 38/85/38 78/122/78 15/123/15
f 83/124/83 6/125/6 5/126/5
f 30/31/30 35/37/35 4/4/4 31/32/31
f 75/107/75 30/127/30 29/128/29 80/108/80
f 84/129/84 85/130/85 86/131/86
f 65/69/65 42/132/42 41/133/41 66/70/66
f 42/44/42 65/134/65 80/135/80 29/30/29
f 79/136/79 78/137/78 37/91/37 74/94/74
f 43/45/43 31/32/31 4/4/4 3/3/3
f 7/7/7 28/138/28 27/139/27 8/8/8
f 67/73/67 71/140/71 70/141/70 68/74/68
f 87/142/87 88/143/88 61/144/61 60/145/60
f 71/146/71 67/147/67 10/148/10 73/149/73
f 16/150/16 79/151/79 89/152/89 90/153/90
f 40/42/40 81/154/81 66/155/66 41/43/41
f 67/73/67 68/74/68 56/60/56 11/11/11
f 56/60/56 20/21/20 12/12/12 11/11/11
f 21/22/21 9/156/9 19/157/19 22/23/22
f 1/1/1 44/158/44 82/159/82 2/2/2
f 46/50/46 17/160/17 14/161/14 48/52/48
f 73/149/73 21/162/21 24/163/24
f 71/146/71 73/149/73 24/164/24 72/165/72
f 86/166/86 85/167/85 59/63/59 62/66/62
f 77/168/77 76/169/76 64/170/64 63/171/63
f 69/88/69 54/172/54 68/173/68 70/79/70
f 52/56/52 89/174/89 74/175/74 57/61/57
f 38/176/38 37/91/37 78/137/78
f 90/153/90 13/177/13 16/178/16
f 74/94/74 89/179/89 79/180/79
f 49/53/49 13/181/13 90/182/90 51/55/51
f 52/56/52 57/61/57 58/62/58 53/57/53
f 45/49/45 75/183/75 76/184/76
f 80/185/80 65/69/65 64/68/64
f 82/119/82 44/186/44 77/187/77
f 66/70/66 81/188/81 63/189/63
f 36/38/36 39/41/39 47/51/47 58/62/58
f 89/152/89 52/190/52 51/191/51 90/153/90
f 85/192/85 91/193/91 92/194/92 59/195/59
f 88/196/88 93/197/93 62/198/62 61/199/61
f 6/200/6 94/201/94 95/202/95 7/203/7
f 96/204/96 94/205/94 83/206/83
f 83/207/83 97/208/97 96/204/96
f 95/202/95 25/209/25 28/210/28 7/203/7
f 94/211/94 97/212/97 98/213/98 95/214/95
f 87/215/87 92/216/92 93/217/93 88/218/88
f 99/219/99 91/220/91 84/221/84
f 97/222/97 5/223/5 8/224/8 98/225/98
f 91/226/91 100/227/100 93/217/93 92/216/92
f 96/204/96 97/208/97 94/228/94
f 83/207/83 5/229/5 97/230/97
f 84/231/84 100/232/100 99/219/99
f 83/206/83 94/205/94 6/233/6
f 98/213/98 26/234/26 25/235/25 95/214/95
f 84/221/84 91/220/91 85/236/85
f 92/194/92 87/237/87 60/238/60 59/195/59
f 99/219/99 100/232/100 91/239/91
f 84/231/84 86/240/86 100/241/100
f 100/242/100 86/243/86 62/198/62 93/197/93
f 26/244/26 98/225/98 8/224/8 27/245/27
o CrystalCrack
v 0.072648 -0.262730 -0.225490
v 0.031576 -0.246086 -0.192784
v 0.031146 -0.251168 -0.188943
v 0.073807 -0.268458 -0.222914
v 0.044919 -0.220809 0.267952
v 0.050734 -0.222083 0.269260
v 0.076074 -0.125783 0.239726
v 0.070405 -0.123948 0.238244
v 0.007665 -0.197938 0.198643
v 0.006184 -0.199095 0.204443
v 0.071514 -0.123227 0.232252
v 0.043528 -0.228029 0.268437
v 0.003068 -0.205347 0.202100
v -0.042352 -0.494627 0.133340
v 0.002864 -0.483276 0.207668
v -0.016957 -0.531663 -0.104271
v 0.029334 -0.538372 -0.146136
v 0.065941 -0.532226 -0.105550
v 0.021097 -0.525322 -0.062388
v 0.021665 -0.502185 0.086518
v 0.004501 -0.204240 0.196639
v 0.069064 -0.204845 0.157055
v 0.075326 -0.199743 0.162049
v 0.069502 -0.198517 0.160729
v 0.077349 -0.124014 0.233988
v -0.190047 -0.235512 -0.018374
v -0.078606 -0.503963 0.072242
v -0.034996 -0.514674 0.004545
v -0.146818 -0.239893 -0.084562
v 0.112573 -0.222661 0.231348
v 0.114061 -0.221457 0.225559
v 0.074566 -0.206017 0.158263
v 0.115026 -0.228698 0.224599
v 0.113592 -0.229806 0.230061
v 0.067781 -0.492330 0.151239
v 0.049030 -0.229201 0.269644
v 0.037843 -0.178847 -0.265509
v -0.236716 -0.170229 -0.100530
v -0.191673 -0.232410 -0.020743
v -0.149448 -0.236687 -0.085391
v -0.159901 -0.511275 0.022888
v -0.110773 -0.522052 -0.045076
v -0.256827 -0.272457 -0.057690
v -0.256508 -0.276450 -0.056263
v -0.210714 -0.281089 -0.126377
v -0.006520 -0.261258 -0.228391
v -0.008051 -0.266912 -0.225918
v 0.034493 -0.180328 -0.268964
v 0.038548 -0.279522 -0.264280
v 0.038359 -0.285722 -0.262877
v -0.240670 -0.172722 -0.102949
v -0.211905 -0.277009 -0.126470
vt 0.043200 0.921100
vt 0.706500 0.921100
vt 0.719200 0.990000
vt 0.030300 0.990000
vt 0.971200 0.705300
vt 0.957500 0.754600
vt 0.525400 0.538600
vt 0.536100 0.488300
vt 0.703100 0.029300
vt 0.753400 0.053200
vt 0.487100 0.461900
vt 0.715300 0.988700
vt 0.034300 0.988700
vt 0.045700 0.000000
vt 0.954100 0.000000
vt 0.042900 0.000000
vt 0.000000 0.959600
vt 0.957000 1.000000
vt 1.000000 0.040500
vt 0.048500 0.000000
vt 0.951200 0.000000
vt 0.713400 0.988700
vt 0.036400 0.988700
vt 0.040800 0.294900
vt 0.054800 0.245600
vt 0.475600 0.512200
vt 0.728500 0.993500
vt 0.971700 0.000000
vt 0.028000 0.000000
vt 0.021000 0.993500
vt 0.525400 0.970800
vt 0.475600 0.947100
vt -0.026900 0.272900
vt -0.013400 0.226600
vt 0.019100 0.980500
vt 0.031600 -0.007800
vt 0.034300 0.988700
vt 0.019100 0.980500
vt 0.031600 -0.007800
vt 1.036100 0.727500
vt 1.023400 0.773800
vt 0.715300 0.988700
vt 0.045700 0.000000
vt 0.954100 0.000000
vt 0.736300 -0.037100
vt 0.784200 -0.015600
vt 0.730000 0.985400
vt 0.699200 0.907200
vt 0.050700 0.907200
vt 0.000000 0.954300
vt 0.048500 0.000000
vt 1.000000 0.045900
vt 0.951200 1.000000
vt 0.478300 0.510700
vt 0.036100 0.289600
vt 0.478300 0.953200
vt 0.492400 0.478000
vt 0.722700 0.017100
vt 0.031600 0.247600
vt 0.959500 0.000000
vt 0.040400 0.000000
vt 0.496300 1.038500
vt 0.449200 1.016300
vt 0.000000 0.973600
vt 0.971700 1.000000
vt 1.000000 0.026900
vt 0.028000 0.000000
vt 0.475600 0.988700
vt 0.466100 0.933700
vt 0.033800 0.933700
vt 0.024300 0.988700
vt 0.701200 0.910900
vt 0.048800 0.910900
vt 0.007200 0.977600
vt 0.029600 -0.010700
vt 0.048500 0.000000
vt 0.951200 0.000000
vt 0.029200 0.946400
vt 0.720700 0.946400
vt 0.701200 0.910900
vt 0.048800 0.910900
vt 0.028100 0.948600
vt 0.721700 0.948600
vt 0.730000 0.993500
vt 0.019800 0.993500
vt 0.026400 0.000000
vt 0.019800 0.993500
vt 0.730000 0.993500
vt 0.973100 0.000000
vt 0.044800 0.917900
vt 0.705100 0.917900
vt 0.717800 0.990000
vt 0.032200 0.990000
vt 0.531700 0.489700
vt 0.708500 0.025900
vt 0.488500 0.466300
vt 0.522500 0.534200
vt 0.974600 0.710700
vt 0.957000 0.000000
vt 0.042900 0.000000
vt 0.043200 0.921100
vt 0.706500 0.921100
vt 0.719200 0.990000
vt 0.030300 0.990000
vt 0.028000 0.000000
vt 0.014000 0.993500
vt 0.485800 0.993500
vt 0.971700 0.000000
vt 0.514600 0.522200
vt 0.983400 0.724400
vt 0.521000 0.493200
vt 0.029900 0.941200
vt 0.470000 0.941200
vt 0.478300 0.990000
vt 0.021500 0.990000
vt 0.019500 0.961700
vt 0.480500 0.961700
vt 0.752900 0.046900
vt 0.522500 0.974200
vt 0.962900 0.754200
vt 0.485800 0.507100
vt 0.514600 0.983200
vt 0.048400 0.246100
vt 0.959500 0.000000
vt 0.040400 0.000000
vt 0.752000 0.030800
vt 0.973100 0.000000
vt 0.026400 0.000000
vt 0.975600 0.752800
vt 0.023500 0.275900
vt 0.485800 0.969500
vt 0.028100 0.948600
vt 0.721700 0.948600
vt 0.042900 0.000000
vt 0.957000 0.000000
vn 0.965100 0.259900 -0.030500
vn -0.018100 0.658400 0.752400
vn -0.034400 0.504800 0.862500
vn 0.995800 0.085800 0.031100
vn -0.503100 0.257200 0.825000
vn 0.184000 0.117900 0.975800
vn 0.428700 0.582900 0.690200
vn -0.374000 0.783600 0.496000
vn -0.674300 0.599200 -0.431600
vn -0.855600 0.454800 0.247200
vn -0.187700 0.928500 -0.320300
vn -0.559900 0.025800 0.828200
vn -0.952400 0.243500 0.183100
vn -0.828300 -0.518800 -0.211500
vn -0.233900 -0.573000 0.785400
vn -0.829300 -0.538400 0.149400
vn 0.041300 -0.786200 -0.616600
vn 0.809500 -0.541000 0.228000
vn -0.040700 -0.326000 0.944500
vn 0.096000 -0.576300 -0.811500
vn -0.772600 0.381700 -0.507300
vn -0.108200 0.376600 -0.920000
vn 0.614500 0.441000 -0.654100
vn -0.070600 0.593500 -0.801700
vn 0.622400 0.774200 -0.114900
vn 0.111200 0.490100 0.864500
vn 0.292400 -0.334500 0.895900
vn 0.888000 -0.458700 -0.030400
vn 0.862200 0.409400 -0.298300
vn 0.787800 0.112300 0.605600
vn 0.966900 0.243500 -0.076400
vn 0.593700 0.226700 -0.772100
vn 0.991600 0.001700 -0.129200
vn 0.816800 -0.143700 0.558700
vn 0.757700 -0.648200 0.074800
vn 0.160500 -0.131800 0.978200
vn 0.308100 0.946600 -0.094700
vn -0.076100 0.990400 -0.115100
vn 0.010900 0.684400 0.729000
vn 0.711200 0.613500 -0.343200
vn -0.689000 -0.638200 0.343400
vn -0.006300 -0.751100 -0.660100
vn -0.985200 0.084700 0.148700
vn -0.961800 -0.156800 0.224300
vn -0.194200 -0.234900 -0.952400
vn -0.945900 0.284300 -0.156300
vn -0.989500 0.109900 -0.093400
vn -0.251900 0.697000 -0.671300
vn 0.095900 -0.137900 -0.985800
vn 0.070600 -0.319900 -0.944800
vn -0.617700 0.647300 -0.446500
vn -0.257000 0.010800 -0.966300
usemtl MEGAICEMAGIC
s 1
f 101/246/101 102/247/102 103/248/103 104/249/104
f 105/250/105 106/251/106 107/252/107 108/253/108
f 109/254/109 110/255/110 108/253/108 111/256/111
f 112/257/112 113/258/113 114/259/114 115/260/115
f 116/261/116 117/262/117 118/263/118 119/264/119
f 120/265/120 114/266/114 121/267/121 122/268/122
f 123/269/123 124/270/124 111/256/111 125/271/125
f 126/272/126 127/273/127 128/274/128 129/275/129
f 124/270/124 109/254/109 111/256/111
f 110/255/110 105/250/105 108/253/108
f 106/251/106 130/276/130 107/252/107
f 131/277/131 123/269/123 125/271/125
f 123/269/123 132/278/132 122/279/122 124/270/124
f 113/258/113 121/280/121 114/281/114
f 133/282/133 134/283/134 135/284/135
f 112/285/112 136/286/136 106/251/106 105/250/105
f 132/287/132 133/282/133 135/288/135 120/289/120
f 109/254/109 121/290/121 113/291/113 110/255/110
f 122/292/122 132/287/132 120/289/120
f 121/267/121 109/293/109 124/294/124 122/268/122
f 115/295/115 114/296/114 120/297/120 135/298/135
f 137/299/137 102/300/102 101/301/101
f 138/302/138 139/303/139 140/304/140
f 103/248/103 119/305/119 118/306/118 104/249/104
f 130/276/130 134/307/134 133/308/133 131/277/131
f 141/309/141 142/310/142 128/311/128 127/312/127
f 134/313/134 130/314/130 106/315/106 136/316/136
f 130/276/130 131/277/131 125/271/125 107/252/107
f 125/271/125 111/256/111 108/253/108 107/252/107
f 112/257/112 105/317/105 110/318/110 113/258/113
f 136/316/136 112/319/112 115/320/115
f 134/313/134 136/316/136 115/321/115 135/322/135
f 140/323/140 139/324/139 126/272/126 129/275/129
f 132/287/132 123/325/123 131/326/131 133/282/133
f 139/327/139 143/328/143 144/329/144 126/330/126
f 142/331/142 145/332/145 129/333/129 128/334/128
f 102/335/102 146/336/146 147/337/147 103/338/103
f 148/339/148 146/340/146 137/341/137
f 137/342/137 149/343/149 148/339/148
f 147/337/147 116/344/116 119/345/119 103/338/103
f 146/346/146 149/347/149 150/348/150 147/349/147
f 141/350/141 144/351/144 145/352/145 142/353/142
f 151/354/151 143/355/143 138/356/138
f 149/357/149 101/358/101 104/359/104 150/360/150
f 143/361/143 152/362/152 145/352/145 144/351/144
f 148/339/148 149/343/149 146/363/146
f 137/342/137 101/364/101 149/365/149
f 138/366/138 152/367/152 151/354/151
f 137/341/137 146/340/146 102/368/102
f 150/348/150 117/369/117 116/370/116 147/349/147
f 138/356/138 143/355/143 139/371/139
f 144/329/144 141/372/141 127/373/127 126/330/126
f 151/354/151 152/367/152 143/374/143
f 138/366/138 140/375/140 152/376/152
f 152/377/152 140/378/140 129/333/129 145/332/145
f 117/379/117 150/360/150 104/359/104 118/380/118
